<?xml version="1.0" encoding="utf-8"?>
<!-- Generator: Adobe Illustrator 24.0.0, SVG Export Plug-In . SVG Version: 6.00 Build 0)  -->
<svg version="1.1" id="Layer_1" xmlns="http://www.w3.org/2000/svg" xmlns:xlink="http://www.w3.org/1999/xlink" x="0px" y="0px"
	 viewBox="0 0 16 16" enable-background="new 0 0 16 16" xml:space="preserve">
<g>
	<path d="M12.629,4.52V3.103c0-1.492-1.214-2.706-2.706-2.706c-1.492,0-2.706,1.214-2.706,2.706V4.52h-3.37l0.117,2.338L4.735,6.82
		L4.659,5.294h10.528l-0.446,8.924c-0.017,0.343-0.3,0.612-0.642,0.612h-8.35c0,0-0.001,0-0.001,0c-0.344,0-0.626-0.269-0.643-0.611
		l-0.046-0.953l-0.772,0.037l0.046,0.954c0.038,0.755,0.659,1.347,1.415,1.347c0.001,0,0.001,0,0.002,0h8.35
		c0.755-0.001,1.376-0.593,1.414-1.347L16,4.52H12.629z M7.99,3.103c0-1.066,0.867-1.933,1.933-1.933
		c1.066,0,1.933,0.867,1.933,1.933V4.52H7.99V3.103z"/>
	<rect y="9.675" width="5.928" height="0.773"/>
	<rect x="1.804" y="7.613" width="5.413" height="0.773"/>
	<rect x="1.804" y="11.737" width="5.413" height="0.773"/>
</g>
</svg>
