<?xml version="1.0" encoding="utf-8"?>
<!-- Generator: Adobe Illustrator 24.0.0, SVG Export Plug-In . SVG Version: 6.00 Build 0)  -->
<svg version="1.1" id="Layer_1" xmlns="http://www.w3.org/2000/svg" xmlns:xlink="http://www.w3.org/1999/xlink" x="0px" y="0px"
	 viewBox="0 0 16 16" enable-background="new 0 0 16 16" xml:space="preserve">
<g>
	<path d="M14,5h-2V4c0-2.2-1.8-4-4-4S4,1.8,4,4v1H2C1.4,5,1,5.4,1,6v9c0,0.6,0.4,1,1,1h12c0.6,0,1-0.4,1-1V6C15,5.4,14.6,5,14,5z
		 M6,4c0-1.1,0.9-2,2-2s2,0.9,2,2v1H6V4z M13,14H3V7h10V14z"/>
</g>
</svg>
