<?xml version="1.0" encoding="utf-8"?>
<!-- Generator: Adobe Illustrator 24.0.0, SVG Export Plug-In . SVG Version: 6.00 Build 0)  -->
<svg version="1.1" id="Layer_1" xmlns="http://www.w3.org/2000/svg" xmlns:xlink="http://www.w3.org/1999/xlink" x="0px" y="0px"
	 viewBox="0 0 16 16" enable-background="new 0 0 16 16" xml:space="preserve">
<g>
	<path d="M11.981,9.274c0.048-0.027,0.081-0.073,0.093-0.126c0.011-0.053-0.001-0.109-0.033-0.153l-0.917-1.233
		c0-0.001-0.001-0.002-0.001-0.003c-0.001-0.001-0.001-0.002-0.002-0.003c-0.002-0.003-0.004-0.007-0.006-0.01
		c-0.001-0.002-0.003-0.004-0.004-0.006c-0.002-0.003-0.004-0.006-0.007-0.008c-0.002-0.002-0.004-0.004-0.006-0.006
		c-0.002-0.002-0.004-0.005-0.007-0.007c-0.002-0.002-0.005-0.005-0.007-0.007c-0.002-0.002-0.004-0.004-0.006-0.005
		c-0.003-0.002-0.006-0.005-0.009-0.007c-0.002-0.001-0.004-0.003-0.006-0.004c-0.003-0.002-0.006-0.004-0.01-0.006
		c-0.001-0.001-0.002-0.001-0.003-0.002L8.093,6.024c-0.058-0.033-0.129-0.033-0.186,0L4.95,7.687
		C4.949,7.687,4.948,7.688,4.947,7.689C4.944,7.691,4.94,7.693,4.937,7.695C4.935,7.696,4.933,7.698,4.931,7.699
		C4.928,7.701,4.925,7.704,4.922,7.706C4.92,7.708,4.918,7.709,4.916,7.711C4.913,7.714,4.911,7.716,4.909,7.718
		C4.907,7.72,4.904,7.723,4.902,7.725C4.9,7.727,4.899,7.729,4.897,7.731C4.894,7.734,4.892,7.737,4.89,7.74
		C4.889,7.742,4.887,7.744,4.886,7.746C4.884,7.749,4.882,7.753,4.88,7.756C4.879,7.757,4.878,7.758,4.878,7.759
		C4.877,7.76,4.876,7.761,4.876,7.763C4.875,7.764,4.875,7.765,4.874,7.766L3.96,8.994c-0.033,0.044-0.045,0.1-0.033,0.153
		c0.011,0.053,0.045,0.099,0.093,0.126l0.834,0.469v0.137v1.299c0,0.069,0.037,0.132,0.097,0.166l2.956,1.663
		c0.001,0.001,0.003,0.002,0.004,0.002c0.002,0.001,0.004,0.002,0.005,0.003c0,0,0.001,0,0.001,0.001
		c0.002,0.001,0.003,0.001,0.005,0.002c0.002,0.001,0.004,0.002,0.006,0.002c0.002,0.001,0.004,0.002,0.006,0.002
		c0.002,0.001,0.004,0.001,0.006,0.002c0.002,0.001,0.004,0.001,0.006,0.002c0.002,0.001,0.004,0.001,0.006,0.002
		c0.002,0.001,0.004,0.001,0.006,0.001c0.002,0,0.004,0.001,0.006,0.001c0.002,0,0.004,0.001,0.006,0.001
		c0.002,0,0.004,0.001,0.006,0.001c0,0,0,0,0,0c0.002,0,0.004,0,0.006,0.001c0,0,0,0,0.001,0c0.002,0,0.004,0,0.006,0.001
		c0.004,0,0.008,0,0.012,0c0.004,0,0.008,0,0.012,0c0.001,0,0.003,0,0.004,0c0.001,0,0.003,0,0.004,0c0.001,0,0.002,0,0.003,0
		c0,0,0,0,0,0c0.002,0,0.003-0.001,0.005-0.001c0,0,0,0,0,0c0.002,0,0.004-0.001,0.006-0.001c0,0,0,0,0.001,0
		c0.002,0,0.004-0.001,0.005-0.001c0.002,0,0.004-0.001,0.006-0.001c0,0,0,0,0.001,0c0.002,0,0.004-0.001,0.006-0.002
		c0.002-0.001,0.004-0.001,0.006-0.002c0.002-0.001,0.004-0.001,0.006-0.002c0.002-0.001,0.004-0.001,0.006-0.002
		c0.002-0.001,0.004-0.002,0.005-0.002c0.002-0.001,0.003-0.001,0.005-0.002c0,0,0.001,0,0.001-0.001
		c0.002-0.001,0.004-0.002,0.005-0.003c0.001-0.001,0.003-0.002,0.004-0.002l2.956-1.663c0.06-0.034,0.097-0.097,0.097-0.166V9.835
		V9.743L11.981,9.274z M8.984,10.523L8.281,9.578l2.622-1.475l0.703,0.945L8.984,10.523z M8.13,9.224V6.481l2.438,1.371L8.13,9.224z
		 M7.869,9.224L6.615,8.518L5.431,7.852l2.438-1.371V9.224z M5.097,8.103l2.622,1.475l-0.703,0.945l-1.85-1.041
		c-0.018-0.016-0.04-0.028-0.063-0.035L4.394,9.048L5.097,8.103z M5.234,9.957l1.742,0.98c0.029,0.017,0.061,0.024,0.093,0.024
		c0.058,0,0.116-0.027,0.153-0.077l0.588-0.79v2.422l-2.576-1.449V9.957z M8.19,12.516v-2.423l0.589,0.791
		c0.037,0.05,0.094,0.077,0.153,0.077c0.032,0,0.064-0.008,0.093-0.024l1.741-0.98v1.11L8.19,12.516z"/>
	<path d="M15.991,3.968c0-0.001,0-0.002,0-0.002c0-0.003,0-0.005-0.001-0.008c0-0.002-0.001-0.004-0.001-0.006
		c0-0.002-0.001-0.004-0.001-0.006c-0.001-0.002-0.001-0.004-0.002-0.006c-0.001-0.002-0.001-0.004-0.002-0.005
		c-0.001-0.002-0.002-0.005-0.002-0.007c-0.001-0.002-0.001-0.003-0.002-0.005c-0.001-0.002-0.002-0.004-0.003-0.007
		c-0.001-0.002-0.002-0.003-0.003-0.005c-0.001-0.002-0.002-0.004-0.003-0.005c-0.001-0.002-0.003-0.004-0.004-0.006
		c-0.001-0.001-0.002-0.003-0.003-0.004c-0.002-0.002-0.004-0.005-0.006-0.007c-0.001-0.001-0.001-0.002-0.002-0.003
		c-0.002-0.002-0.005-0.005-0.007-0.007c-0.001-0.001-0.001-0.001-0.002-0.002c-0.002-0.002-0.005-0.004-0.008-0.006
		c-0.001-0.001-0.001-0.001-0.002-0.002c-0.003-0.002-0.005-0.004-0.008-0.005c-0.001-0.001-0.002-0.001-0.003-0.002
		c-0.002-0.001-0.005-0.003-0.007-0.004c-0.001-0.001-0.003-0.001-0.004-0.002c-0.001-0.001-0.002-0.001-0.003-0.002
		c-0.001-0.001-0.002-0.001-0.004-0.001c-0.002-0.001-0.003-0.001-0.005-0.002c-0.002-0.001-0.005-0.002-0.007-0.002
		c-0.002,0-0.003-0.001-0.005-0.001c-0.003-0.001-0.005-0.001-0.008-0.002c-0.001,0-0.003,0-0.004-0.001
		c-0.003,0-0.006-0.001-0.009-0.001c-0.001,0-0.003,0-0.004,0c-0.003,0-0.006,0-0.008,0c-0.001,0-0.002,0-0.003,0
		c-0.001,0-0.002,0-0.003,0c-0.002,0-0.005,0-0.007,0.001c-0.002,0-0.004,0.001-0.006,0.001c-0.002,0-0.004,0.001-0.006,0.001
		c-0.002,0.001-0.005,0.001-0.007,0.002c-0.002,0-0.003,0.001-0.005,0.002c-0.003,0.001-0.005,0.002-0.007,0.003
		c-0.001,0.001-0.003,0.001-0.004,0.002c-0.002,0.001-0.005,0.002-0.007,0.003c-0.001,0.001-0.003,0.002-0.004,0.002
		c-0.002,0.001-0.004,0.002-0.006,0.004c-0.002,0.001-0.003,0.002-0.005,0.003c-0.002,0.001-0.004,0.002-0.005,0.004
		c-0.002,0.001-0.003,0.003-0.005,0.004c-0.001,0.001-0.003,0.002-0.004,0.004c-0.002,0.002-0.003,0.003-0.005,0.005
		c-0.001,0.001-0.002,0.002-0.003,0.004c-0.002,0.002-0.003,0.004-0.005,0.006c-0.001,0.001-0.002,0.003-0.003,0.004
		c-0.001,0.002-0.002,0.004-0.004,0.005c-0.001,0.002-0.002,0.004-0.003,0.006c-0.001,0.002-0.002,0.003-0.003,0.005
		c-0.001,0.002-0.002,0.005-0.003,0.007c0,0.001-0.001,0.001-0.001,0.002c-0.132,0.319-0.346,0.641-0.636,0.955
		c-0.278,0.301-0.61,0.58-0.989,0.83c-0.761,0.502-1.614,0.822-2.34,0.875c-0.454,0.034-0.831,0.092-1.152,0.18
		c-0.07,0.019-0.111,0.091-0.092,0.16c0.016,0.058,0.069,0.096,0.126,0.096c0.011,0,0.023-0.001,0.034-0.005
		c0.305-0.083,0.665-0.139,1.102-0.171c0.77-0.057,1.668-0.392,2.465-0.918c0.637-0.421,1.146-0.917,1.475-1.433
		c-0.039,0.868-0.315,1.594-0.824,2.164c-0.559,0.626-1.304,0.949-1.831,1.111c-0.574,0.176-1.021,0.203-1.029,0.203
		c-0.072,0.004-0.127,0.066-0.124,0.138c0.004,0.07,0.061,0.124,0.13,0.124c0.002,0,0.005,0,0.007,0
		c0.019-0.001,0.479-0.028,1.084-0.212c0.56-0.171,1.355-0.515,1.956-1.187c0.074-0.083,0.144-0.169,0.209-0.258
		c0.006,0.133,0.006,0.295-0.01,0.471c-0.037,0.408-0.169,0.98-0.59,1.384c-0.385,0.37-0.935,0.435-1.329,0.424
		c-0.439-0.012-0.789-0.118-0.793-0.119c-0.069-0.021-0.142,0.017-0.163,0.086c-0.021,0.069,0.017,0.142,0.086,0.164
		c0.015,0.005,0.382,0.116,0.856,0.13c0.032,0.001,0.063,0.001,0.094,0.001c0.591,0,1.081-0.168,1.42-0.489
		c-0.107,0.399-0.35,0.958-0.897,1.242c-0.819,0.425-1.829-0.364-1.84-0.373c-0.056-0.045-0.139-0.036-0.184,0.021
		c-0.045,0.056-0.036,0.139,0.021,0.184c0.012,0.009,0.288,0.228,0.683,0.388c0.273,0.111,0.536,0.167,0.783,0.167
		c0.22,0,0.426-0.044,0.613-0.133c-0.038,0.068-0.083,0.141-0.136,0.214c-0.275,0.381-0.625,0.603-1.039,0.66
		c-0.363,0.05-0.707-0.057-1.021-0.318c-0.241-0.2-0.374-0.42-0.377-0.425c-0.037-0.062-0.117-0.083-0.179-0.046
		c-0.062,0.037-0.083,0.117-0.046,0.179c0.006,0.01,0.153,0.257,0.428,0.487c0.312,0.261,0.663,0.396,1.027,0.396
		c0.068,0,0.136-0.005,0.205-0.014c0.483-0.067,0.906-0.334,1.221-0.773c0.213-0.297,0.309-0.577,0.328-0.635
		c0.255-0.229,0.456-0.538,0.591-0.914c0.134-0.372,0.16-0.687,0.164-0.742c0.184-0.315,0.299-0.698,0.337-1.131
		c0.036-0.411-0.006-0.744-0.022-0.847C15.889,5.587,16.04,4.834,15.991,3.968z"/>
	<path d="M4.69,10.211c-0.062-0.037-0.142-0.016-0.179,0.046C4.506,10.266,3.991,11.121,3.113,11
		c-0.414-0.057-0.764-0.279-1.039-0.66c-0.053-0.074-0.099-0.146-0.136-0.214c0.187,0.089,0.394,0.133,0.613,0.133
		c0.246,0,0.509-0.056,0.783-0.167c0.395-0.161,0.671-0.379,0.683-0.388C4.073,9.659,4.083,9.577,4.038,9.52
		C3.993,9.464,3.91,9.454,3.854,9.499c-0.01,0.008-1.018,0.799-1.84,0.372C1.639,9.678,1.361,9.336,1.187,8.856
		C1.159,8.777,1.135,8.701,1.116,8.63c0.34,0.321,0.829,0.49,1.421,0.49c0.031,0,0.062,0,0.094-0.001
		c0.474-0.014,0.84-0.126,0.856-0.13c0.069-0.021,0.108-0.094,0.086-0.163C3.552,8.755,3.479,8.716,3.41,8.738
		C3.406,8.739,3.056,8.845,2.617,8.857c-0.713,0.019-1.116-0.22-1.329-0.424c-0.42-0.404-0.553-0.976-0.59-1.384
		C0.683,6.872,0.683,6.71,0.689,6.577c0.065,0.089,0.134,0.175,0.209,0.258c0.601,0.672,1.395,1.016,1.956,1.187
		c0.605,0.184,1.065,0.211,1.084,0.212c0.002,0,0.005,0,0.007,0c0.069,0,0.127-0.054,0.13-0.124
		c0.004-0.072-0.051-0.134-0.124-0.138c-0.004,0-0.447-0.026-1.022-0.201C2.401,7.611,1.653,7.287,1.092,6.66
		c-0.51-0.57-0.787-1.297-0.826-2.165c0.329,0.516,0.838,1.012,1.475,1.433c0.797,0.526,1.695,0.861,2.465,0.918
		c0.437,0.032,0.798,0.088,1.102,0.171C5.32,7.02,5.332,7.022,5.343,7.022c0.058,0,0.11-0.038,0.126-0.096
		c0.019-0.07-0.022-0.142-0.092-0.16C5.056,6.678,4.68,6.619,4.226,6.585c-0.727-0.054-1.58-0.373-2.34-0.875
		C1.507,5.46,1.174,5.181,0.897,4.88C0.607,4.566,0.393,4.245,0.26,3.925c0-0.001-0.001-0.001-0.001-0.002
		C0.258,3.921,0.257,3.918,0.256,3.916C0.255,3.914,0.254,3.913,0.253,3.911C0.252,3.909,0.251,3.907,0.25,3.905
		C0.249,3.903,0.248,3.901,0.246,3.9C0.245,3.898,0.244,3.897,0.243,3.895C0.241,3.893,0.24,3.891,0.238,3.89
		C0.237,3.888,0.236,3.887,0.235,3.886C0.233,3.884,0.231,3.882,0.23,3.88C0.228,3.879,0.227,3.878,0.225,3.877
		C0.224,3.875,0.222,3.874,0.22,3.872C0.219,3.871,0.217,3.87,0.215,3.868C0.213,3.867,0.212,3.866,0.21,3.865
		C0.208,3.864,0.206,3.863,0.204,3.861C0.202,3.861,0.201,3.86,0.2,3.859C0.197,3.858,0.195,3.857,0.192,3.856
		C0.191,3.855,0.19,3.854,0.188,3.854C0.186,3.853,0.183,3.852,0.181,3.851C0.179,3.851,0.178,3.85,0.176,3.85
		C0.174,3.849,0.171,3.848,0.169,3.848c-0.002,0-0.004-0.001-0.006-0.001c-0.002,0-0.004-0.001-0.006-0.001
		c-0.002,0-0.005-0.001-0.007-0.001c-0.001,0-0.002,0-0.003,0c-0.001,0-0.002,0-0.003,0c-0.003,0-0.006,0-0.008,0
		c-0.001,0-0.003,0-0.004,0c-0.003,0-0.006,0-0.009,0.001c-0.001,0-0.003,0-0.004,0.001c-0.003,0-0.006,0.001-0.008,0.002
		c-0.001,0-0.003,0.001-0.004,0.001C0.103,3.85,0.101,3.851,0.098,3.851C0.097,3.852,0.095,3.852,0.094,3.853
		c-0.001,0-0.003,0.001-0.004,0.001C0.088,3.855,0.087,3.856,0.086,3.856C0.085,3.857,0.083,3.857,0.082,3.858
		C0.079,3.859,0.077,3.861,0.074,3.862C0.073,3.863,0.072,3.863,0.071,3.864C0.068,3.866,0.066,3.867,0.063,3.869
		c-0.001,0-0.001,0.001-0.002,0.001C0.058,3.873,0.056,3.875,0.053,3.877c-0.001,0-0.001,0.001-0.001,0.001
		C0.049,3.881,0.047,3.883,0.044,3.886C0.044,3.887,0.043,3.887,0.042,3.888C0.04,3.89,0.038,3.893,0.036,3.895
		C0.035,3.896,0.035,3.897,0.034,3.899C0.032,3.901,0.031,3.903,0.029,3.905C0.028,3.907,0.027,3.908,0.026,3.91
		C0.025,3.912,0.024,3.914,0.023,3.916C0.022,3.918,0.021,3.92,0.02,3.922C0.02,3.924,0.019,3.925,0.018,3.927
		C0.017,3.929,0.017,3.931,0.016,3.934C0.015,3.935,0.015,3.937,0.014,3.939C0.013,3.941,0.013,3.943,0.012,3.945
		C0.012,3.948,0.011,3.95,0.011,3.952c0,0.002-0.001,0.004-0.001,0.006c0,0.003-0.001,0.005-0.001,0.008c0,0.001,0,0.002,0,0.002
		c-0.049,0.866,0.102,1.62,0.45,2.25C0.443,6.32,0.401,6.653,0.438,7.064C0.476,7.497,0.591,7.88,0.775,8.195
		c0.004,0.056,0.03,0.37,0.164,0.742c0.135,0.376,0.336,0.685,0.591,0.914c0.019,0.058,0.115,0.338,0.328,0.635
		c0.315,0.439,0.737,0.707,1.221,0.773c0.069,0.009,0.137,0.014,0.205,0.014c0.364,0,0.715-0.135,1.027-0.396
		c0.274-0.23,0.421-0.477,0.428-0.487C4.773,10.328,4.752,10.248,4.69,10.211z"/>
	<path d="M8.304,5.309c0.188,0,0.363,0.073,0.493,0.205C8.927,5.645,8.999,5.822,9,6.011C9,6.083,9.058,6.142,9.13,6.142
		c0,0,0,0,0,0c0.072,0,0.131-0.059,0.131-0.131c0-0.188,0.073-0.365,0.205-0.497c0.132-0.132,0.309-0.205,0.497-0.205
		c0.072,0,0.131-0.059,0.131-0.131c0-0.072-0.059-0.131-0.131-0.131c0,0,0,0,0,0c0,0,0,0,0,0c-0.189,0-0.365-0.072-0.497-0.202
		C9.333,4.714,9.261,4.539,9.261,4.352c0-0.072-0.059-0.131-0.131-0.131c0,0,0,0,0,0c-0.072,0-0.131,0.059-0.131,0.131
		c0,0.39-0.306,0.696-0.696,0.696c-0.072,0-0.131,0.059-0.131,0.131C8.173,5.25,8.231,5.309,8.304,5.309z M8.982,5.03
		C9.04,4.972,9.09,4.907,9.131,4.838c0.041,0.07,0.092,0.135,0.151,0.193C9.34,5.089,9.405,5.138,9.475,5.179
		C9.405,5.22,9.34,5.27,9.281,5.329c-0.059,0.059-0.109,0.124-0.15,0.194c-0.041-0.07-0.09-0.135-0.148-0.193
		C8.924,5.27,8.86,5.22,8.79,5.179C8.859,5.138,8.924,5.088,8.982,5.03z"/>
	<path d="M5.98,5.366C5.98,5.366,5.98,5.366,5.98,5.366c0.284,0,0.516,0.231,0.516,0.516c0,0.072,0.059,0.131,0.131,0.131
		c0,0,0,0,0,0c0.072,0,0.131-0.059,0.131-0.131c0-0.139,0.053-0.269,0.149-0.366c0.096-0.097,0.224-0.15,0.362-0.15c0,0,0,0,0,0
		c0,0,0,0,0,0c0.072,0,0.131-0.059,0.131-0.131c0-0.072-0.059-0.131-0.131-0.131h0c0,0,0,0,0,0c-0.286,0-0.511-0.224-0.511-0.511
		c0-0.072-0.059-0.131-0.131-0.131c-0.072,0-0.131,0.059-0.131,0.131c0,0.286-0.227,0.511-0.516,0.511c0,0-0.001,0-0.001,0
		c0,0,0,0,0,0c0,0,0,0,0,0C5.907,5.105,5.849,5.164,5.849,5.235C5.849,5.307,5.908,5.366,5.98,5.366z M6.529,5.141
		c0.036-0.036,0.068-0.074,0.096-0.116c0.028,0.041,0.059,0.08,0.095,0.115c0.036,0.036,0.074,0.067,0.115,0.095
		c-0.041,0.028-0.08,0.06-0.116,0.096C6.684,5.368,6.652,5.407,6.625,5.448C6.569,5.365,6.496,5.293,6.413,5.236
		C6.454,5.209,6.493,5.177,6.529,5.141z"/>
	<path d="M7.39,3.444c0,0.033,0.013,0.067,0.038,0.092c0.026,0.026,0.059,0.038,0.092,0.038c0.033,0,0.067-0.013,0.092-0.038
		c0.022-0.022,0.051-0.034,0.081-0.034c0.029,0,0.057,0.012,0.078,0.033c0.026,0.026,0.059,0.038,0.093,0.038c0,0,0,0,0,0
		c0.072,0,0.131-0.059,0.131-0.131c0-0.038-0.016-0.072-0.041-0.096c-0.041-0.044-0.04-0.111,0.003-0.154
		c0.026-0.026,0.038-0.059,0.038-0.092c0-0.033-0.013-0.067-0.038-0.092c-0.051-0.051-0.134-0.051-0.185,0
		C7.751,3.029,7.723,3.041,7.694,3.041c-0.03,0-0.059-0.012-0.081-0.034c-0.051-0.051-0.134-0.051-0.185,0
		C7.403,3.033,7.39,3.066,7.39,3.1c0,0.033,0.013,0.067,0.038,0.092c0.021,0.021,0.033,0.05,0.033,0.08
		c0,0.03-0.012,0.058-0.033,0.08C7.403,3.377,7.39,3.411,7.39,3.444z"/>
</g>
</svg>
