<?xml version="1.0" encoding="utf-8"?>
<!-- Generator: Adobe Illustrator 24.0.0, SVG Export Plug-In . SVG Version: 6.00 Build 0)  -->
<svg version="1.1" id="Layer_1" xmlns="http://www.w3.org/2000/svg" xmlns:xlink="http://www.w3.org/1999/xlink" x="0px" y="0px"
	 viewBox="0 0 16 16" enable-background="new 0 0 16 16" xml:space="preserve">
<g>
	<path d="M16,9.744c0-0.035-0.007-0.069-0.022-0.1l-1.35-3.002c-0.15-0.344-0.518-0.692-0.933-0.692h-2.24V4.877
		c0-0.619-0.513-1.122-1.143-1.122H9.15c0.032-0.019,0.063-0.038,0.094-0.058c0.502-0.32,0.894-0.748,1.105-1.207
		c0.222-0.483,0.22-0.945-0.008-1.3c-0.228-0.356-0.649-0.553-1.184-0.553c-0.56,0-1.091,0.18-1.577,0.534
		C7.198,1.451,6.843,1.837,6.525,2.321C6.364,2.565,6.23,2.808,6.12,3.03C5.909,2.603,5.603,2.09,5.195,1.651
		C4.57,0.979,3.86,0.638,3.084,0.638c-0.535,0-0.956,0.196-1.184,0.553c-0.227,0.355-0.23,0.817-0.008,1.3
		c0.211,0.458,0.604,0.887,1.105,1.207c0.031,0.02,0.063,0.039,0.094,0.058H1.928c-0.63,0-1.143,0.504-1.143,1.122v7.753
		c0,0.003,0,0.007,0,0.01c0.002,0.073,0.036,0.138,0.088,0.182c0.076,0.562,0.546,1.002,1.122,1.031
		c0.057,0.479,0.317,0.899,0.693,1.173H1.929c-0.093,0-0.168,0.075-0.168,0.168c0,0.093,0.075,0.168,0.168,0.168h4.507
		c0.093,0,0.168-0.075,0.168-0.168c0-0.093-0.075-0.168-0.168-0.168H4.762c0.376-0.274,0.636-0.693,0.693-1.171h6.083
		c0.057,0.479,0.317,0.897,0.693,1.171h-1.153c-0.093,0-0.168,0.075-0.168,0.168c0,0.093,0.075,0.168,0.168,0.168h4.104
		c0.093,0,0.168-0.075,0.168-0.168c0-0.093-0.075-0.168-0.168-0.168h-0.876c0.382-0.278,0.644-0.706,0.696-1.194
		c0.076-0.019,0.144-0.047,0.223-0.083c0.376-0.171,0.635-0.524,0.69-0.926C15.966,12.777,16,12.71,16,12.635V9.75
		c0-0.001,0-0.002,0-0.003C16,9.746,16,9.745,16,9.744z M13.696,6.439c0.184,0,0.403,0.21,0.484,0.399
		c0,0.001,0.001,0.002,0.001,0.003l1.329,2.956v2.67h-0.993c-0.317-0.32-0.76-0.52-1.25-0.52c-0.49,0-0.933,0.199-1.25,0.52h-0.561
		v-0.86V6.439H13.696z M11.531,13.518h-6.07c-0.021-0.259-0.101-0.501-0.227-0.715h1.99h4.533
		C11.632,13.017,11.552,13.259,11.531,13.518z M2.475,12.466h-1.2V9.489h3.574v2.862c-0.304-0.252-0.696-0.404-1.123-0.404
		C3.235,11.947,2.791,12.146,2.475,12.466z M7.393,12.466V9.489h3.574v2.118v0.86H7.393z M10.966,9.152H7.393V7.331h3.574V9.152z
		 M7.056,4.244v8.222H5.184V4.244H7.056z M4.848,9.152H1.274V7.331h3.574V9.152z M10.966,4.877v1.317v0.801H7.393V4.244h2.92
		C10.673,4.244,10.966,4.528,10.966,4.877z M6.811,2.499c0.295-0.448,0.622-0.804,0.971-1.057c0.427-0.31,0.89-0.467,1.376-0.467
		c0.417,0,0.737,0.141,0.901,0.398c0.163,0.255,0.158,0.602-0.014,0.977c-0.184,0.4-0.533,0.778-0.981,1.064
		C8.826,3.564,8.576,3.68,8.329,3.755h-2.16C6.286,3.453,6.498,2.973,6.811,2.499z M3.178,3.413C2.729,3.127,2.381,2.75,2.197,2.35
		C2.024,1.974,2.019,1.627,2.183,1.372c0.164-0.256,0.484-0.398,0.901-0.398c0.679,0,1.307,0.305,1.865,0.906
		c0.465,0.5,0.79,1.108,0.988,1.549C5.883,3.557,5.84,3.667,5.808,3.755H3.912C3.664,3.68,3.415,3.564,3.178,3.413z M1.928,4.244
		h2.92v2.751H1.274V4.877C1.274,4.528,1.567,4.244,1.928,4.244z M1.21,12.803h1.005c-0.125,0.213-0.205,0.454-0.227,0.712
		C1.594,13.485,1.274,13.187,1.21,12.803z M3.725,14.873c-0.691,0-1.253-0.546-1.253-1.218c0-0.672,0.562-1.218,1.253-1.218
		c0.691,0,1.253,0.546,1.253,1.218C4.977,14.326,4.415,14.873,3.725,14.873z M13.267,14.873c-0.691,0-1.253-0.546-1.253-1.218
		c0-0.672,0.562-1.218,1.253-1.218s1.253,0.546,1.253,1.218C14.52,14.326,13.958,14.873,13.267,14.873z M15.084,13.442
		c-0.032,0.014-0.059,0.026-0.084,0.036c-0.026-0.244-0.104-0.472-0.223-0.675h0.798C15.528,13.081,15.346,13.323,15.084,13.442z"/>
	<path d="M5.121,3.062C4.539,2.05,3.835,1.516,3.084,1.516c-0.207,0-0.364,0.052-0.421,0.138C2.6,1.747,2.618,1.93,2.71,2.13
		c0.291,0.631,1.156,1.185,1.852,1.185c0,0,0,0,0,0l0.412-0.001c0.06,0,0.115-0.032,0.145-0.084
		C5.151,3.178,5.151,3.114,5.121,3.062z M4.562,2.978c-0.561,0-1.312-0.481-1.546-0.989C2.991,1.935,2.978,1.892,2.97,1.86
		c0.028-0.005,0.065-0.008,0.113-0.008c0.685,0,1.225,0.566,1.591,1.126L4.562,2.978z"/>
	<path d="M7.265,3.314l0.413,0.001c0.696,0,1.561-0.554,1.852-1.185c0.092-0.2,0.111-0.383,0.049-0.476
		C9.522,1.567,9.364,1.516,9.157,1.516c-0.751,0-1.456,0.535-2.037,1.546c-0.03,0.052-0.03,0.116,0,0.168
		C7.15,3.282,7.205,3.314,7.265,3.314z M9.157,1.852c0.048,0,0.086,0.004,0.113,0.008C9.263,1.892,9.25,1.935,9.224,1.989
		C8.99,2.498,8.239,2.978,7.679,2.978l-0.113,0C7.933,2.418,8.472,1.852,9.157,1.852z"/>
	<path d="M12.049,9.873h2.779c0.057,0,0.11-0.029,0.141-0.077c0.031-0.048,0.036-0.108,0.012-0.16L13.78,6.965
		c-0.017-0.039-0.039-0.081-0.067-0.127c-0.031-0.05-0.085-0.081-0.144-0.081h-1.521c-0.093,0-0.168,0.075-0.168,0.168v2.779
		C11.88,9.798,11.956,9.873,12.049,9.873z M12.217,7.093h1.252c0.001,0.002,0.002,0.004,0.003,0.006
		c0,0.001,0.001,0.002,0.001,0.002l1.095,2.435h-2.351V7.093z"/>
	<path d="M3.725,13.099c-0.311,0-0.564,0.249-0.564,0.555s0.253,0.555,0.564,0.555c0.311,0,0.564-0.249,0.564-0.555
		S4.036,13.099,3.725,13.099z M3.725,13.873c-0.126,0-0.228-0.098-0.228-0.219c0-0.121,0.102-0.219,0.228-0.219
		c0.126,0,0.228,0.098,0.228,0.219C3.952,13.775,3.85,13.873,3.725,13.873z"/>
	<path d="M13.267,13.099c-0.311,0-0.564,0.249-0.564,0.555s0.253,0.555,0.564,0.555c0.311,0,0.564-0.249,0.564-0.555
		S13.578,13.099,13.267,13.099z M13.267,13.873c-0.126,0-0.228-0.098-0.228-0.219c0-0.121,0.102-0.219,0.228-0.219
		c0.126,0,0.228,0.098,0.228,0.219C13.495,13.775,13.393,13.873,13.267,13.873z"/>
	<path d="M1.005,15.026H0.168C0.075,15.026,0,15.101,0,15.194c0,0.093,0.075,0.168,0.168,0.168h0.837
		c0.093,0,0.168-0.075,0.168-0.168C1.174,15.101,1.098,15.026,1.005,15.026z"/>
</g>
</svg>
