<?xml version="1.0" encoding="utf-8"?>
<!-- Generator: Adobe Illustrator 24.0.0, SVG Export Plug-In . SVG Version: 6.00 Build 0)  -->
<svg version="1.1" id="Layer_1" xmlns="http://www.w3.org/2000/svg" xmlns:xlink="http://www.w3.org/1999/xlink" x="0px" y="0px"
	 viewBox="0 0 16 16" enable-background="new 0 0 16 16" xml:space="preserve">
<g>
	<path d="M8,7.247C7.585,7.247,7.247,7.585,7.247,8c0,0.415,0.338,0.753,0.753,0.753S8.753,8.415,8.753,8
		C8.753,7.585,8.415,7.247,8,7.247z"/>
	<path d="M9.506,5.74H6.494c-0.352,0-0.753,0.401-0.753,0.753v3.013c0,0.359,0.394,0.753,0.753,0.753h3.013
		c0.352,0,0.753-0.401,0.753-0.753V6.494C10.26,6.141,9.859,5.74,9.506,5.74z M8,9.506C7.169,9.506,6.494,8.831,6.494,8
		c0-0.831,0.676-1.506,1.506-1.506S9.506,7.169,9.506,8C9.506,8.831,8.831,9.506,8,9.506z M9.561,6.814
		c-0.2,0-0.362-0.162-0.362-0.362c0-0.2,0.162-0.362,0.362-0.362c0.2,0,0.362,0.162,0.362,0.362
		C9.923,6.653,9.761,6.814,9.561,6.814z"/>
	<path d="M8,0C3.582,0,0,3.582,0,8s3.582,8,8,8s8-3.582,8-8S12.418,0,8,0z M11.013,9.506c0,0.774-0.732,1.506-1.506,1.506H6.494
		c-0.774,0-1.506-0.732-1.506-1.506V6.494c0-0.774,0.732-1.506,1.506-1.506h3.013c0.774,0,1.506,0.732,1.506,1.506V9.506z"/>
</g>
</svg>
