<?xml version="1.0" encoding="utf-8"?>
<!-- Generator: Adobe Illustrator 24.0.0, SVG Export Plug-In . SVG Version: 6.00 Build 0)  -->
<svg version="1.1" id="Layer_1" xmlns="http://www.w3.org/2000/svg" xmlns:xlink="http://www.w3.org/1999/xlink" x="0px" y="0px"
	 viewBox="0 0 16 16" enable-background="new 0 0 16 16" xml:space="preserve">
<path fill="#010101" d="M16,4.017c0-0.002,0-0.004,0-0.006c0-0.003-0.001-0.005-0.001-0.008c-0.001-0.007-0.001-0.013-0.002-0.02
	c-0.001-0.005-0.002-0.009-0.003-0.013c-0.001-0.006-0.003-0.012-0.005-0.019c-0.001-0.004-0.003-0.009-0.004-0.013
	c-0.002-0.006-0.005-0.012-0.008-0.018c-0.002-0.004-0.004-0.008-0.006-0.012c-0.003-0.006-0.007-0.012-0.011-0.018
	c-0.002-0.003-0.004-0.006-0.006-0.009c-0.006-0.008-0.012-0.015-0.019-0.023c-0.001-0.001-0.001-0.002-0.002-0.002
	c-0.007-0.008-0.016-0.015-0.024-0.022c-0.003-0.002-0.006-0.004-0.009-0.006c-0.005-0.004-0.01-0.007-0.015-0.011
	c-0.001-0.001-0.002-0.001-0.003-0.002c-0.004-0.002-0.007-0.004-0.011-0.006c-0.006-0.003-0.012-0.006-0.019-0.009
	C15.85,3.801,15.849,3.801,15.847,3.8L13.41,2.85c-0.012-0.086-0.069-0.16-0.15-0.192l-1.793-0.694
	c-0.064-0.025-0.136-0.021-0.197,0.011l-0.045,0.023L8.703,1.015C8.639,0.99,8.566,0.994,8.505,1.026L0.129,5.398l-0.001,0
	C0.128,5.399,0.127,5.4,0.126,5.4C0.119,5.404,0.111,5.409,0.104,5.414C0.103,5.414,0.102,5.415,0.101,5.416
	C0.098,5.418,0.096,5.42,0.093,5.422C0.087,5.427,0.082,5.431,0.076,5.436C0.073,5.439,0.071,5.442,0.068,5.445
	C0.063,5.45,0.059,5.455,0.054,5.46C0.052,5.463,0.049,5.466,0.047,5.469C0.043,5.475,0.039,5.481,0.035,5.487
	C0.033,5.49,0.031,5.493,0.03,5.496C0.026,5.503,0.022,5.511,0.019,5.519C0.018,5.521,0.017,5.523,0.016,5.525
	c-0.004,0.01-0.007,0.02-0.009,0.03C0.006,5.558,0.006,5.561,0.005,5.563C0.004,5.571,0.002,5.579,0.002,5.587
	c0,0.004-0.001,0.008-0.001,0.012C0.001,5.603,0,5.607,0,5.611v6.354c0,0.099,0.061,0.188,0.154,0.224l7.052,2.7
	c0.02,0.031,0.046,0.058,0.079,0.078c0.038,0.023,0.081,0.035,0.124,0.035c0.038,0,0.077-0.009,0.111-0.027l8.351-4.385
	C15.951,10.548,16,10.466,16,10.377V4.023C16,4.021,16,4.019,16,4.017z M11.253,2.524l0.142-0.073l1.199,0.464L12.449,2.99
	L4.696,7.043L3.77,6.691L3.436,6.565l0.021-0.011L11.253,2.524z M4.479,7.526v1.473L3.079,8.385v-1.43V6.943V6.942l0.509,0.193
	l0.013,0.006L3.848,7.25L4.479,7.526z M8.63,1.501l2.027,0.79L2.884,6.31C2.847,6.303,2.81,6.305,2.774,6.315L0.825,5.576
	L8.63,1.501z M7.164,14.359L0.48,11.8V5.96l2.119,0.811v1.771c0,0.095,0.056,0.181,0.144,0.22l1.88,0.824
	c0.031,0.014,0.064,0.02,0.096,0.02c0.046,0,0.092-0.013,0.131-0.039c0.068-0.044,0.109-0.12,0.109-0.201V7.675l2.205,0.844V14.359z
	 M7.394,8.065L5.296,7.27l7.746-4.049l2.136,0.833L7.394,8.065z M15.52,10.232l-7.871,4.133V8.553L15.52,4.42V10.232z"/>
</svg>
