<?xml version="1.0" encoding="utf-8"?>
<!-- Generator: Adobe Illustrator 24.0.0, SVG Export Plug-In . SVG Version: 6.00 Build 0)  -->
<svg version="1.1" id="Layer_1" xmlns="http://www.w3.org/2000/svg" xmlns:xlink="http://www.w3.org/1999/xlink" x="0px" y="0px"
	 viewBox="0 0 16 16" enable-background="new 0 0 16 16" xml:space="preserve">
<g>
	<path d="M8,0C3.6,0,0,3.6,0,8c0,3.4,2.1,6.3,5.1,7.45c-0.05-0.65-0.15-1.6,0.05-2.3c0.15-0.6,0.95-4,0.95-4s-0.25-0.5-0.25-1.2
		C5.85,6.85,6.5,6,7.3,6c0.7,0,1,0.5,1,1.15c0,0.7-0.45,1.7-0.65,2.65c-0.2,0.8,0.4,1.45,1.2,1.45c1.4,0,2.5-1.5,2.5-3.65
		c0-1.9-1.4-3.25-3.35-3.25c-2.3,0-3.6,1.7-3.6,3.45c0,0.7,0.25,1.4,0.6,1.85C5.05,9.75,5.05,9.8,5.05,9.9
		c-0.05,0.25-0.2,0.8-0.2,0.9c-0.1,0.15-0.2,0.2-0.35,0.1c-1-0.45-1.6-1.95-1.6-3.1c0-2.5,1.85-4.85,5.3-4.85c2.8,0,4.95,2,4.95,4.6
		c0,2.75-1.75,5-4.15,5c-0.8,0-1.55-0.4-1.85-0.9c0,0-0.4,1.55-0.5,1.9c-0.2,0.7-0.65,1.55-1,2.1C6.4,15.9,7.2,16,8,16
		c4.4,0,8-3.6,8-8S12.4,0,8,0z"/>
</g>
</svg>
