<?xml version="1.0" encoding="utf-8"?>
<!-- Generator: Adobe Illustrator 24.0.0, SVG Export Plug-In . SVG Version: 6.00 Build 0)  -->
<svg version="1.1" id="Layer_1" xmlns="http://www.w3.org/2000/svg" xmlns:xlink="http://www.w3.org/1999/xlink" x="0px" y="0px"
	 viewBox="0 0 16 16" enable-background="new 0 0 16 16" xml:space="preserve">
<g>
	<g>
		<path d="M13.976,3.385l-1.235,5.806l-1.4-5.806h-1.91L8.018,9.063L6.872,3.385c0,0-3.065,0-3.455,0c-0.37,0-1.107,0-1.514,0.106
			C1.507,3.594,1.39,3.716,1.114,3.945c-0.276,0.229-0.49,0.512-0.643,0.847C0.318,5.127,0.242,5.515,0.242,5.957
			c0,0.356,0.046,0.664,0.14,0.923c0.093,0.259,0.225,0.484,0.395,0.675c0.17,0.191,0.371,0.354,0.605,0.49
			C1.615,8.18,1.867,8.304,2.139,8.414L2.89,8.707c0.136,0.051,0.272,0.102,0.407,0.153C3.433,8.91,3.556,8.976,3.667,9.057
			c0.11,0.081,0.195,0.18,0.255,0.299c0.059,0.119,0.081,0.267,0.064,0.446c-0.043,0.348-0.187,0.584-0.433,0.707
			c-0.246,0.123-0.603,0.185-1.07,0.185c-0.348,0-0.69-0.036-1.025-0.108c-0.335-0.072-0.677-0.155-1.025-0.248L0,12.119
			c0.238,0.093,0.46,0.17,0.668,0.229c0.208,0.059,0.416,0.111,0.624,0.153c0.208,0.043,0.422,0.072,0.643,0.089
			c0.221,0.017,0.462,0.026,0.726,0.026c0.569,0,1.074-0.07,1.515-0.21c0.441-0.14,0.813-0.335,1.114-0.586
			c0.301-0.25,0.53-0.554,0.688-0.91c0.143-0.325,0.221-0.683,0.233-1.073l0.636,2.639h2.037l1.426-5.487l1.337,5.487h2.164
			c0.127-0.517,0.244-0.989,0.35-1.413c0.106-0.424,0.225-0.91,0.357-1.458c0.131-0.547,0.265-1.106,0.401-1.674
			c0.136-0.569,0.27-1.125,0.401-1.668c0.131-0.543,0.248-1.029,0.35-1.458c0.102-0.429,0.212-0.902,0.331-1.42H13.976z
			 M5.627,7.911C5.441,7.712,5.214,7.542,4.946,7.402c-0.267-0.14-0.562-0.274-0.885-0.401L3.31,6.708
			C3.2,6.665,3.089,6.621,2.979,6.574C2.869,6.528,2.771,6.47,2.686,6.402C2.601,6.334,2.531,6.254,2.476,6.16
			C2.421,6.067,2.393,5.948,2.393,5.804c0-0.178,0.034-0.322,0.102-0.433C2.563,5.261,2.648,5.174,2.75,5.11
			c0.102-0.064,0.216-0.108,0.344-0.134c0.127-0.025,0.25-0.038,0.369-0.038c0.578,0,1.128,0.119,1.653,0.354l0.683,2.836
			C5.746,8.052,5.69,7.978,5.627,7.911z"/>
	</g>
</g>
</svg>
