<?xml version="1.0" encoding="utf-8"?>
<!-- Generator: Adobe Illustrator 24.0.0, SVG Export Plug-In . SVG Version: 6.00 Build 0)  -->
<svg version="1.1" id="Layer_1" xmlns="http://www.w3.org/2000/svg" xmlns:xlink="http://www.w3.org/1999/xlink" x="0px" y="0px"
	 viewBox="0 0 16 16" enable-background="new 0 0 16 16" xml:space="preserve">
<g>
	<path d="M12.724,8.252c-0.92,1.79-2.716,2.961-4.724,3.081c-2.008-0.12-3.804-1.292-4.724-3.081
		c-1.571,1.143-2.671,2.82-3.092,4.716c-0.057,0.265,0.051,0.538,0.275,0.691c4.543,3.122,10.54,3.122,15.083,0
		c0.223-0.153,0.332-0.426,0.275-0.691C15.395,11.072,14.295,9.395,12.724,8.252z"/>
	<path d="M8,0C5.791,0,4,1.791,4,4c0,2.148,1.68,5.333,4,5.333S12,6.148,12,4C12,1.791,10.209,0,8,0z"/>
</g>
</svg>
